{
    "asset": {
        "version": "2.0",
        "generator": "Open Asset Import Library (assimp v5.2.cf7d3637)"
    },
    "extensionsUsed": [
        "KHR_materials_volume",
        "FB_ngon_encoding"
    ],
    "accessors": [
        {
            "bufferView": 0,
            "byteOffset": 0,
            "componentType": 5126,
            "count": 528,
            "type": "VEC3",
            "max": [
                68.42266845703125,
                16.084604263305665,
                68.4031982421875
            ],
            "min": [
                -68.42266845703125,
                -3.362309694290161,
                -68.4031982421875
            ]
        },
        {
            "bufferView": 1,
            "byteOffset": 0,
            "componentType": 5126,
            "count": 528,
            "type": "VEC3",
            "max": [
                0.973806619644165,
                0.996117889881134,
                0.9738068580627441
            ],
            "min": [
                -0.973806619644165,
                -0.9986527562141419,
                -0.9738068580627441
            ]
        },
        {
            "bufferView": 2,
            "byteOffset": 0,
            "componentType": 5126,
            "count": 528,
            "type": "VEC2",
            "max": [
                1.0,
                1.0
            ],
            "min": [
                0.0,
                0.0
            ]
        },
        {
            "bufferView": 3,
            "byteOffset": 0,
            "componentType": 5125,
            "count": 528,
            "type": "SCALAR",
            "max": [
                527
            ],
            "min": [
                0
            ]
        }
    ],
    "buffers": [
        {
            "byteLength": 19008,
            "uri": "result.bin"
        }
    ],
    "bufferViews": [
        {
            "buffer": 0,
            "byteOffset": 0,
            "byteLength": 6336,
            "target": 34962
        },
        {
            "buffer": 0,
            "byteOffset": 6336,
            "byteLength": 6336,
            "target": 34962
        },
        {
            "buffer": 0,
            "byteOffset": 12672,
            "byteLength": 4224,
            "target": 34962
        },
        {
            "buffer": 0,
            "byteOffset": 16896,
            "byteLength": 2112,
            "target": 34963
        }
    ],
    "materials": [
        {
            "name": "Green.4",
            "pbrMetallicRoughness": {
                "baseColorFactor": [
                    0.03733207285404205,
                    0.22995267808437348,
                    0.006418553646653891,
                    1.0
                ],
                "metallicFactor": 0.0,
                "roughnessFactor": 0.690034806728363
            }
        }
    ],
    "meshes": [
        {
            "name": "Cube",
            "primitives": [
                {
                    "extensions": {
                        "FB_ngon_encoding": {}
                    },
                    "mode": 4,
                    "material": 0,
                    "indices": 3,
                    "attributes": {
                        "POSITION": 0,
                        "NORMAL": 1,
                        "TEXCOORD_0": 2
                    }
                }
            ]
        }
    ],
    "nodes": [
        {
            "name": "RootNode",
            "children": [
                1
            ]
        },
        {
            "name": "Plant_1",
            "mesh": 0,
            "extras": {
                "UserProperties": "",
                "IsNull": false,
                "DefaultAttributeIndex": 0,
                "InheritType": 1
            }
        }
    ],
    "scenes": [
        {
            "nodes": [
                0
            ]
        }
    ],
    "scene": 0
}