{
    "asset": {
        "version": "2.0",
        "generator": "Open Asset Import Library (assimp v5.2.cf7d3637)"
    },
    "extensionsUsed": [
        "KHR_materials_volume",
        "FB_ngon_encoding"
    ],
    "accessors": [
        {
            "bufferView": 0,
            "byteOffset": 0,
            "componentType": 5126,
            "count": 660,
            "type": "VEC3",
            "max": [
                47.93122482299805,
                21.11771011352539,
                47.85216522216797
            ],
            "min": [
                -50.33094024658203,
                -4.49998140335083,
                -50.701133728027347
            ]
        },
        {
            "bufferView": 1,
            "byteOffset": 0,
            "componentType": 5126,
            "count": 660,
            "type": "VEC3",
            "max": [
                0.9993909001350403,
                0.21399039030075074,
                1.0
            ],
            "min": [
                -0.9993910193443298,
                -1.0,
                -1.0
            ]
        },
        {
            "bufferView": 2,
            "byteOffset": 0,
            "componentType": 5126,
            "count": 660,
            "type": "VEC2",
            "max": [
                1.0,
                1.0
            ],
            "min": [
                0.0,
                5.960464477539063e-8
            ]
        },
        {
            "bufferView": 3,
            "byteOffset": 0,
            "componentType": 5125,
            "count": 660,
            "type": "SCALAR",
            "max": [
                659
            ],
            "min": [
                0
            ]
        },
        {
            "bufferView": 4,
            "byteOffset": 0,
            "componentType": 5126,
            "count": 660,
            "type": "VEC3",
            "max": [
                53.89183044433594,
                28.141387939453126,
                52.93766784667969
            ],
            "min": [
                -54.528167724609378,
                21.1176815032959,
                -55.90044403076172
            ]
        },
        {
            "bufferView": 5,
            "byteOffset": 0,
            "componentType": 5126,
            "count": 660,
            "type": "VEC3",
            "max": [
                0.9993909001350403,
                1.0,
                1.0
            ],
            "min": [
                -0.9993909001350403,
                -0.7171658873558044,
                -1.0
            ]
        },
        {
            "bufferView": 6,
            "byteOffset": 0,
            "componentType": 5126,
            "count": 660,
            "type": "VEC2",
            "max": [
                1.0,
                1.0
            ],
            "min": [
                0.0,
                0.0007274746894836426
            ]
        },
        {
            "bufferView": 7,
            "byteOffset": 0,
            "componentType": 5125,
            "count": 660,
            "type": "SCALAR",
            "max": [
                659
            ],
            "min": [
                0
            ]
        }
    ],
    "buffers": [
        {
            "byteLength": 47520,
            "uri": "result.bin"
        }
    ],
    "bufferViews": [
        {
            "buffer": 0,
            "byteOffset": 0,
            "byteLength": 7920,
            "target": 34962
        },
        {
            "buffer": 0,
            "byteOffset": 7920,
            "byteLength": 7920,
            "target": 34962
        },
        {
            "buffer": 0,
            "byteOffset": 15840,
            "byteLength": 5280,
            "target": 34962
        },
        {
            "buffer": 0,
            "byteOffset": 21120,
            "byteLength": 2640,
            "target": 34963
        },
        {
            "buffer": 0,
            "byteOffset": 23760,
            "byteLength": 7920,
            "target": 34962
        },
        {
            "buffer": 0,
            "byteOffset": 31680,
            "byteLength": 7920,
            "target": 34962
        },
        {
            "buffer": 0,
            "byteOffset": 39600,
            "byteLength": 5280,
            "target": 34962
        },
        {
            "buffer": 0,
            "byteOffset": 44880,
            "byteLength": 2640,
            "target": 34963
        }
    ],
    "materials": [
        {
            "name": "Green.7",
            "pbrMetallicRoughness": {
                "baseColorFactor": [
                    0.30975720286369326,
                    0.64000004529953,
                    0.06355100125074387,
                    1.0
                ],
                "metallicFactor": 0.0,
                "roughnessFactor": 0.690034806728363
            }
        },
        {
            "name": "Purple.2",
            "pbrMetallicRoughness": {
                "baseColorFactor": [
                    0.64000004529953,
                    0.07572097331285477,
                    0.5019643902778626,
                    1.0
                ],
                "metallicFactor": 0.0,
                "roughnessFactor": 0.690034806728363
            }
        }
    ],
    "meshes": [
        {
            "name": "Cube.003",
            "primitives": [
                {
                    "extensions": {
                        "FB_ngon_encoding": {}
                    },
                    "mode": 4,
                    "material": 0,
                    "indices": 3,
                    "attributes": {
                        "POSITION": 0,
                        "NORMAL": 1,
                        "TEXCOORD_0": 2
                    }
                },
                {
                    "extensions": {
                        "FB_ngon_encoding": {}
                    },
                    "mode": 4,
                    "material": 1,
                    "indices": 7,
                    "attributes": {
                        "POSITION": 4,
                        "NORMAL": 5,
                        "TEXCOORD_0": 6
                    }
                }
            ]
        }
    ],
    "nodes": [
        {
            "name": "RootNode",
            "children": [
                1
            ]
        },
        {
            "name": "Plant_5",
            "mesh": 0,
            "extras": {
                "UserProperties": "",
                "IsNull": false,
                "DefaultAttributeIndex": 0,
                "InheritType": 1
            }
        }
    ],
    "scenes": [
        {
            "nodes": [
                0
            ]
        }
    ],
    "scene": 0
}