{
    "asset": {
        "version": "2.0",
        "generator": "Open Asset Import Library (assimp v5.2.cf7d3637)"
    },
    "extensionsUsed": [
        "KHR_materials_volume",
        "FB_ngon_encoding"
    ],
    "accessors": [
        {
            "bufferView": 0,
            "byteOffset": 0,
            "componentType": 5126,
            "count": 324,
            "type": "VEC3",
            "max": [
                177.32508850097657,
                40.084590911865237,
                109.45172119140625
            ],
            "min": [
                -168.8829345703125,
                -0.000017306216250290164,
                -95.75914764404297
            ]
        },
        {
            "bufferView": 1,
            "byteOffset": 0,
            "componentType": 5126,
            "count": 324,
            "type": "VEC3",
            "max": [
                0.9426161050796509,
                1.0,
                0.8182852864265442
            ],
            "min": [
                -0.8834812045097351,
                -1.0,
                -0.9499465823173523
            ]
        },
        {
            "bufferView": 2,
            "byteOffset": 0,
            "componentType": 5126,
            "count": 324,
            "type": "VEC2",
            "max": [
                1.0,
                1.0
            ],
            "min": [
                0.0,
                0.0
            ]
        },
        {
            "bufferView": 3,
            "byteOffset": 0,
            "componentType": 5125,
            "count": 324,
            "type": "SCALAR",
            "max": [
                323
            ],
            "min": [
                0
            ]
        }
    ],
    "buffers": [
        {
            "byteLength": 11664,
            "uri": "result.bin"
        }
    ],
    "bufferViews": [
        {
            "buffer": 0,
            "byteOffset": 0,
            "byteLength": 3888,
            "target": 34962
        },
        {
            "buffer": 0,
            "byteOffset": 3888,
            "byteLength": 3888,
            "target": 34962
        },
        {
            "buffer": 0,
            "byteOffset": 7776,
            "byteLength": 2592,
            "target": 34962
        },
        {
            "buffer": 0,
            "byteOffset": 10368,
            "byteLength": 1296,
            "target": 34963
        }
    ],
    "materials": [
        {
            "name": "Gray.2",
            "pbrMetallicRoughness": {
                "baseColorFactor": [
                    0.43057966232299807,
                    0.43057966232299807,
                    0.43057966232299807,
                    1.0
                ],
                "metallicFactor": 0.0,
                "roughnessFactor": 0.690034806728363
            }
        }
    ],
    "meshes": [
        {
            "name": "Plane",
            "primitives": [
                {
                    "extensions": {
                        "FB_ngon_encoding": {}
                    },
                    "mode": 4,
                    "material": 0,
                    "indices": 3,
                    "attributes": {
                        "POSITION": 0,
                        "NORMAL": 1,
                        "TEXCOORD_0": 2
                    }
                }
            ]
        }
    ],
    "nodes": [
        {
            "name": "RootNode",
            "children": [
                1
            ]
        },
        {
            "name": "Rock_1",
            "mesh": 0,
            "extras": {
                "UserProperties": "",
                "IsNull": false,
                "DefaultAttributeIndex": 0,
                "InheritType": 1
            }
        }
    ],
    "scenes": [
        {
            "nodes": [
                0
            ]
        }
    ],
    "scene": 0
}