{
    "asset": {
        "version": "2.0",
        "generator": "Open Asset Import Library (assimp v5.2.cf7d3637)"
    },
    "extensionsUsed": [
        "KHR_materials_volume",
        "FB_ngon_encoding"
    ],
    "accessors": [
        {
            "bufferView": 0,
            "byteOffset": 0,
            "componentType": 5126,
            "count": 1056,
            "type": "VEC3",
            "max": [
                68.40690612792969,
                28.74888801574707,
                68.38732147216797
            ],
            "min": [
                -70.99310302734375,
                -8.966740608215332,
                -73.70783233642578
            ]
        },
        {
            "bufferView": 1,
            "byteOffset": 0,
            "componentType": 5126,
            "count": 1056,
            "type": "VEC3",
            "max": [
                0.9991301894187927,
                0.9995595812797546,
                0.9995735883712769
            ],
            "min": [
                -0.9991303086280823,
                -0.9997336864471436,
                -0.9976245760917664
            ]
        },
        {
            "bufferView": 2,
            "byteOffset": 0,
            "componentType": 5126,
            "count": 1056,
            "type": "VEC2",
            "max": [
                1.0,
                1.0
            ],
            "min": [
                0.0,
                0.0
            ]
        },
        {
            "bufferView": 3,
            "byteOffset": 0,
            "componentType": 5125,
            "count": 1056,
            "type": "SCALAR",
            "max": [
                1055
            ],
            "min": [
                0
            ]
        }
    ],
    "buffers": [
        {
            "byteLength": 38016,
            "uri": "result.bin"
        }
    ],
    "bufferViews": [
        {
            "buffer": 0,
            "byteOffset": 0,
            "byteLength": 12672,
            "target": 34962
        },
        {
            "buffer": 0,
            "byteOffset": 12672,
            "byteLength": 12672,
            "target": 34962
        },
        {
            "buffer": 0,
            "byteOffset": 25344,
            "byteLength": 8448,
            "target": 34962
        },
        {
            "buffer": 0,
            "byteOffset": 33792,
            "byteLength": 4224,
            "target": 34963
        }
    ],
    "materials": [
        {
            "name": "Green.6",
            "pbrMetallicRoughness": {
                "baseColorFactor": [
                    0.1117091178894043,
                    0.32157471776008608,
                    0.023204665631055833,
                    1.0
                ],
                "metallicFactor": 0.0,
                "roughnessFactor": 0.690034806728363
            }
        }
    ],
    "meshes": [
        {
            "name": "Cube",
            "primitives": [
                {
                    "extensions": {
                        "FB_ngon_encoding": {}
                    },
                    "mode": 4,
                    "material": 0,
                    "indices": 3,
                    "attributes": {
                        "POSITION": 0,
                        "NORMAL": 1,
                        "TEXCOORD_0": 2
                    }
                }
            ]
        }
    ],
    "nodes": [
        {
            "name": "RootNode",
            "children": [
                1
            ]
        },
        {
            "name": "Plant_3",
            "mesh": 0,
            "extras": {
                "UserProperties": "",
                "IsNull": false,
                "DefaultAttributeIndex": 0,
                "InheritType": 1
            }
        }
    ],
    "scenes": [
        {
            "nodes": [
                0
            ]
        }
    ],
    "scene": 0
}