{
    "asset": {
        "version": "2.0",
        "generator": "Open Asset Import Library (assimp v5.2.cf7d3637)"
    },
    "extensionsUsed": [
        "KHR_materials_volume",
        "FB_ngon_encoding"
    ],
    "accessors": [
        {
            "bufferView": 0,
            "byteOffset": 0,
            "componentType": 5126,
            "count": 288,
            "type": "VEC3",
            "max": [
                117.14265441894531,
                22.056936264038087,
                116.90565490722656
            ],
            "min": [
                -116.9056625366211,
                -0.11750531196594238,
                -116.90563201904297
            ]
        },
        {
            "bufferView": 1,
            "byteOffset": 0,
            "componentType": 5126,
            "count": 288,
            "type": "VEC3",
            "max": [
                0.7153447866439819,
                1.0,
                0.6791974902153015
            ],
            "min": [
                -0.6671460866928101,
                0.6719678640365601,
                -0.6930813193321228
            ]
        },
        {
            "bufferView": 2,
            "byteOffset": 0,
            "componentType": 5126,
            "count": 288,
            "type": "VEC2",
            "max": [
                1.0,
                1.0
            ],
            "min": [
                0.0,
                0.0
            ]
        },
        {
            "bufferView": 3,
            "byteOffset": 0,
            "componentType": 5125,
            "count": 288,
            "type": "SCALAR",
            "max": [
                287
            ],
            "min": [
                0
            ]
        }
    ],
    "buffers": [
        {
            "byteLength": 10368,
            "uri": "result.bin"
        }
    ],
    "bufferViews": [
        {
            "buffer": 0,
            "byteOffset": 0,
            "byteLength": 3456,
            "target": 34962
        },
        {
            "buffer": 0,
            "byteOffset": 3456,
            "byteLength": 3456,
            "target": 34962
        },
        {
            "buffer": 0,
            "byteOffset": 6912,
            "byteLength": 2304,
            "target": 34962
        },
        {
            "buffer": 0,
            "byteOffset": 9216,
            "byteLength": 1152,
            "target": 34963
        }
    ],
    "materials": [
        {
            "name": "Yellow.2",
            "pbrMetallicRoughness": {
                "baseColorFactor": [
                    0.64000004529953,
                    0.6220647692680359,
                    0.026908233761787416,
                    1.0
                ],
                "metallicFactor": 0.0,
                "roughnessFactor": 0.690034806728363
            }
        }
    ],
    "meshes": [
        {
            "name": "Plane.000",
            "primitives": [
                {
                    "extensions": {
                        "FB_ngon_encoding": {}
                    },
                    "mode": 4,
                    "material": 0,
                    "indices": 3,
                    "attributes": {
                        "POSITION": 0,
                        "NORMAL": 1,
                        "TEXCOORD_0": 2
                    }
                }
            ]
        }
    ],
    "nodes": [
        {
            "name": "RootNode",
            "children": [
                1
            ]
        },
        {
            "name": "Plant_4",
            "mesh": 0,
            "extras": {
                "UserProperties": "",
                "IsNull": false,
                "DefaultAttributeIndex": 0,
                "InheritType": 1
            }
        }
    ],
    "scenes": [
        {
            "nodes": [
                0
            ]
        }
    ],
    "scene": 0
}