{
    "asset": {
        "version": "2.0",
        "generator": "Open Asset Import Library (assimp v5.2.cf7d3637)"
    },
    "extensionsUsed": [
        "KHR_materials_volume",
        "FB_ngon_encoding"
    ],
    "accessors": [
        {
            "bufferView": 0,
            "byteOffset": 0,
            "componentType": 5126,
            "count": 36,
            "type": "VEC3",
            "max": [
                12.095995903015137,
                13.895743370056153,
                12.096004486083985
            ],
            "min": [
                -12.0960054397583,
                -4.904248237609863,
                -12.096004486083985
            ]
        },
        {
            "bufferView": 1,
            "byteOffset": 0,
            "componentType": 5126,
            "count": 36,
            "type": "VEC3",
            "max": [
                0.9738122224807739,
                0.990520179271698,
                0.9772839546203613
            ],
            "min": [
                -0.9761063456535339,
                -1.0,
                -0.9762415885925293
            ]
        },
        {
            "bufferView": 2,
            "byteOffset": 0,
            "componentType": 5126,
            "count": 36,
            "type": "VEC2",
            "max": [
                1.0,
                1.0
            ],
            "min": [
                0.0,
                0.0
            ]
        },
        {
            "bufferView": 3,
            "byteOffset": 0,
            "componentType": 5125,
            "count": 36,
            "type": "SCALAR",
            "max": [
                35
            ],
            "min": [
                0
            ]
        }
    ],
    "buffers": [
        {
            "byteLength": 1296,
            "uri": "result.bin"
        }
    ],
    "bufferViews": [
        {
            "buffer": 0,
            "byteOffset": 0,
            "byteLength": 432,
            "target": 34962
        },
        {
            "buffer": 0,
            "byteOffset": 432,
            "byteLength": 432,
            "target": 34962
        },
        {
            "buffer": 0,
            "byteOffset": 864,
            "byteLength": 288,
            "target": 34962
        },
        {
            "buffer": 0,
            "byteOffset": 1152,
            "byteLength": 144,
            "target": 34963
        }
    ],
    "materials": [
        {
            "name": "Brown.2",
            "pbrMetallicRoughness": {
                "baseColorFactor": [
                    0.30506083369255068,
                    0.07267338037490845,
                    0.004839067347347736,
                    1.0
                ],
                "metallicFactor": 0.0,
                "roughnessFactor": 0.690034806728363
            }
        }
    ],
    "meshes": [
        {
            "name": "Cube",
            "primitives": [
                {
                    "extensions": {
                        "FB_ngon_encoding": {}
                    },
                    "mode": 4,
                    "material": 0,
                    "indices": 3,
                    "attributes": {
                        "POSITION": 0,
                        "NORMAL": 1,
                        "TEXCOORD_0": 2
                    }
                }
            ]
        }
    ],
    "nodes": [
        {
            "name": "RootNode",
            "children": [
                1
            ]
        },
        {
            "name": "Stone_1",
            "mesh": 0,
            "extras": {
                "UserProperties": "",
                "IsNull": false,
                "DefaultAttributeIndex": 0,
                "InheritType": 1
            }
        }
    ],
    "scenes": [
        {
            "nodes": [
                0
            ]
        }
    ],
    "scene": 0
}